<mxfile host="app.diagrams.net" modified="2020-12-29T02:36:45.326Z" agent="5.0 (Windows)" etag="DAfKEd9QHtMV_UPS3GTo" version="14.1.3" type="github">
  <diagram id="hQk4EJMJcc5GyETIqfYv" name="Page-1">
    <mxGraphModel dx="2062" dy="2224" grid="1" gridSize="10" guides="1" tooltips="1" connect="1" arrows="1" fold="1" page="1" pageScale="1" pageWidth="850" pageHeight="1100" math="0" shadow="0">
      <root>
        <mxCell id="0" />
        <mxCell id="1" parent="0" />
        <mxCell id="X3Wl1z3HKtIbxb1m-Jc_-3" style="edgeStyle=orthogonalEdgeStyle;rounded=0;orthogonalLoop=1;jettySize=auto;html=1;entryX=0;entryY=0.5;entryDx=0;entryDy=0;entryPerimeter=0;" edge="1" parent="1" source="X3Wl1z3HKtIbxb1m-Jc_-1" target="X3Wl1z3HKtIbxb1m-Jc_-2">
          <mxGeometry relative="1" as="geometry" />
        </mxCell>
        <mxCell id="X3Wl1z3HKtIbxb1m-Jc_-1" value="Named Credential&#xa;Callout&#xa;" style="shape=image;imageAspect=0;aspect=fixed;verticalLabelPosition=bottom;verticalAlign=top;image=https://external-content.duckduckgo.com/iu/?u=https%3A%2F%2Fupload.wikimedia.org%2Fwikipedia%2Fen%2Fthumb%2F8%2F83%2FSalesforce_logo.svg%2F1200px-Salesforce_logo.svg.png&amp;f=1&amp;nofb=1;" vertex="1" parent="1">
          <mxGeometry x="40" y="130" width="91.43" height="64" as="geometry" />
        </mxCell>
        <mxCell id="X3Wl1z3HKtIbxb1m-Jc_-7" value="" style="edgeStyle=orthogonalEdgeStyle;rounded=0;orthogonalLoop=1;jettySize=auto;html=1;entryX=0.016;entryY=0.5;entryDx=0;entryDy=0;entryPerimeter=0;" edge="1" parent="1" source="X3Wl1z3HKtIbxb1m-Jc_-2" target="X3Wl1z3HKtIbxb1m-Jc_-6">
          <mxGeometry relative="1" as="geometry">
            <mxPoint x="424" y="162" as="targetPoint" />
          </mxGeometry>
        </mxCell>
        <mxCell id="X3Wl1z3HKtIbxb1m-Jc_-12" value="" style="edgeStyle=orthogonalEdgeStyle;rounded=0;orthogonalLoop=1;jettySize=auto;html=1;entryX=-0.031;entryY=0.484;entryDx=0;entryDy=0;entryPerimeter=0;" edge="1" parent="1" source="X3Wl1z3HKtIbxb1m-Jc_-2" target="X3Wl1z3HKtIbxb1m-Jc_-5">
          <mxGeometry relative="1" as="geometry">
            <mxPoint x="424" y="162" as="targetPoint" />
            <Array as="points">
              <mxPoint x="370" y="162" />
              <mxPoint x="370" y="251" />
            </Array>
          </mxGeometry>
        </mxCell>
        <mxCell id="X3Wl1z3HKtIbxb1m-Jc_-2" value="Azure API Gateway" style="aspect=fixed;html=1;points=[];align=center;image;fontSize=12;image=img/lib/azure2/networking/Application_Gateways.svg;" vertex="1" parent="1">
          <mxGeometry x="280" y="130" width="64" height="64" as="geometry" />
        </mxCell>
        <mxCell id="X3Wl1z3HKtIbxb1m-Jc_-4" value="" style="aspect=fixed;html=1;points=[];align=center;image;fontSize=12;image=img/lib/azure2/app_services/App_Services.svg;" vertex="1" parent="1">
          <mxGeometry x="480" y="40" width="64" height="64" as="geometry" />
        </mxCell>
        <mxCell id="X3Wl1z3HKtIbxb1m-Jc_-5" value="" style="aspect=fixed;html=1;points=[];align=center;image;fontSize=12;image=img/lib/azure2/app_services/App_Services.svg;" vertex="1" parent="1">
          <mxGeometry x="480" y="220" width="64" height="64" as="geometry" />
        </mxCell>
        <mxCell id="X3Wl1z3HKtIbxb1m-Jc_-6" value="" style="aspect=fixed;html=1;points=[];align=center;image;fontSize=12;image=img/lib/azure2/app_services/App_Services.svg;" vertex="1" parent="1">
          <mxGeometry x="480" y="130" width="64" height="64" as="geometry" />
        </mxCell>
        <mxCell id="X3Wl1z3HKtIbxb1m-Jc_-11" style="edgeStyle=orthogonalEdgeStyle;rounded=0;orthogonalLoop=1;jettySize=auto;html=1;entryX=-0.062;entryY=0.531;entryDx=0;entryDy=0;entryPerimeter=0;labelPosition=center;verticalLabelPosition=top;align=center;verticalAlign=bottom;" edge="1" parent="1">
          <mxGeometry relative="1" as="geometry">
            <mxPoint x="476.03200000000015" y="73.98399999999992" as="targetPoint" />
            <mxPoint x="344" y="162" as="sourcePoint" />
            <Array as="points">
              <mxPoint x="370" y="162" />
              <mxPoint x="370" y="74" />
            </Array>
          </mxGeometry>
        </mxCell>
        <mxCell id="X3Wl1z3HKtIbxb1m-Jc_-14" value="/LoServices" style="edgeLabel;html=1;align=center;verticalAlign=middle;resizable=0;points=[];" vertex="1" connectable="0" parent="X3Wl1z3HKtIbxb1m-Jc_-11">
          <mxGeometry x="0.7088" y="-1" relative="1" as="geometry">
            <mxPoint x="-19" y="-14.99" as="offset" />
          </mxGeometry>
        </mxCell>
        <mxCell id="X3Wl1z3HKtIbxb1m-Jc_-15" value="*/LoServices/" style="edgeLabel;html=1;align=center;verticalAlign=middle;resizable=0;points=[];" vertex="1" connectable="0" parent="1">
          <mxGeometry x="425.0001500553444" y="59.998833548422" as="geometry" />
        </mxCell>
        <mxCell id="X3Wl1z3HKtIbxb1m-Jc_-16" value="*/RD/" style="edgeLabel;html=1;align=center;verticalAlign=middle;resizable=0;points=[];" vertex="1" connectable="0" parent="1">
          <mxGeometry x="440.0001500553444" y="149.998833548422" as="geometry">
            <mxPoint x="-12" as="offset" />
          </mxGeometry>
        </mxCell>
        <mxCell id="X3Wl1z3HKtIbxb1m-Jc_-17" value="*/CM2/" style="edgeLabel;html=1;align=center;verticalAlign=middle;resizable=0;points=[];" vertex="1" connectable="0" parent="1">
          <mxGeometry x="440.0001500553444" y="239.998833548422" as="geometry">
            <mxPoint x="-12" as="offset" />
          </mxGeometry>
        </mxCell>
        <mxCell id="X3Wl1z3HKtIbxb1m-Jc_-19" value="&lt;h1&gt;Named Credential&lt;br&gt;&lt;/h1&gt;&lt;p&gt;Salesforce has a single named credential which all authorized callouts are made.&amp;nbsp; This points to an Azure API Gateway which then handles routing the request to the appropriate service based on URL&lt;br&gt;&lt;/p&gt;" style="text;html=1;strokeColor=none;fillColor=none;spacing=5;spacingTop=-20;whiteSpace=wrap;overflow=hidden;rounded=0;" vertex="1" parent="1">
          <mxGeometry x="30" width="260" height="120" as="geometry" />
        </mxCell>
      </root>
    </mxGraphModel>
  </diagram>
</mxfile>
